<svg xmlns="http://www.w3.org/2000/svg" viewBox="0 0 331.66 61.02"><defs><style>.cls-1{fill:#dc69a6;}.cls-2{fill:#e2e1fe;}</style></defs><title>PinkPoncho Name</title><g id="Layer_2" data-name="Layer 2"><g id="Layer_1-2" data-name="Layer 1"><path class="cls-1" d="M39.16,22.59a18.69,18.69,0,0,1-.24,3.17q-3.16,18.77-17.8,18.76a24.25,24.25,0,0,1-13.4-3.81v1.7c-.06,3.63.27,6.12,1,7.48a15.73,15.73,0,0,1,1.55,3.25A3.83,3.83,0,0,1,9,56,4,4,0,0,1,6.09,57.2c-2.43,0-4.09-.87-4.95-2.6a17.79,17.79,0,0,1-1-5.77Q0,46.07,0,42.49a33.51,33.51,0,0,1,.37-4.14,35.31,35.31,0,0,0,.36-4.23V28.6a65,65,0,0,1,.33-7.19q.41-4.76.4-7V7.07C1.46,7,1.22,5.5.73,2.68a6,6,0,0,1,4-1.95A4.23,4.23,0,0,1,8.14,2.32,6,6,0,0,1,9.43,6.17V7.31Q14.79.25,23,.24A14.6,14.6,0,0,1,35.18,6q4,5.21,4,13.16v3.42Zm-7.39-1.3a24.22,24.22,0,0,0-1.71-9.59q-2.36-5.37-7.23-5.36-6.25,0-10.72,7.63a25.92,25.92,0,0,0-4,13.41q0,11.29,11.38,11.29a9.46,9.46,0,0,0,8.94-5.28q1.62-2.92,3.09-10.64C31.69,21.72,31.77,21.23,31.77,21.29Z"/><path class="cls-1" d="M53.87,24.94a19.23,19.23,0,0,1-.65,4.15,18.63,18.63,0,0,0-.65,4.14V50a19.6,19.6,0,0,0,1,4.87,3.37,3.37,0,0,1-2.7,1.87c-3.45,0-5.34-1.7-5.67-5.12q-.81-9.5-.81-14.3A117.42,117.42,0,0,1,45,23.81V23c0-1,.75-1.46,2.26-1.46a10.68,10.68,0,0,1,4,.81C53,22.94,53.87,23.81,53.87,24.94Zm.73-11.37a3.81,3.81,0,0,1-1.22,2.92,4.23,4.23,0,0,1-3,1.14,6.23,6.23,0,0,1-3.94-1.46,4.46,4.46,0,0,1-1.82-3.58,3.72,3.72,0,0,1,1.26-2.92A4.46,4.46,0,0,1,49,8.53,5.93,5.93,0,0,1,52.89,10,4.51,4.51,0,0,1,54.6,13.57Z"/><path class="cls-1" d="M87.42,55.66a3.53,3.53,0,0,1-3,1.86,12,12,0,0,1-4.55-1.62v-1c0-1.19,0-3,.08-5.28s.08-4,.08-5.12q0-17.39-5.17-17.38c-1,0-2.07.76-3.31,2.27a25.64,25.64,0,0,0-5.74,16.82,23.8,23.8,0,0,0,.53,4.1,24,24,0,0,1,.53,4.11,2.21,2.21,0,0,1-1.06,1.87,4,4,0,0,1-2.27.73q-4.87,0-4.88-6.18v-17A15.82,15.82,0,0,1,58.82,32,16.13,16.13,0,0,0,59,30.06a20.54,20.54,0,0,0-.29-2.84,20.28,20.28,0,0,1-.28-2.76A3.24,3.24,0,0,1,59.92,22a4.57,4.57,0,0,1,2.72-1.18,5.21,5.21,0,0,1,3.66,2l-.25,3.25q3-4.78,7.4-4.79a11.55,11.55,0,0,1,6,1.95,13.45,13.45,0,0,1,4.63,4.38q3.33,6.18,3.33,16.26Z"/><path class="cls-1" d="M125,58.74c-2.06,1.52-3.68,2.28-4.88,2.28q-2.35,0-6.82-4.88-3.17-3.41-6.26-6.9-1.78-2.12-5.68-5.93l-.25.16v7.15a5.6,5.6,0,0,0,.53,1.91,5.61,5.61,0,0,1,.53,2,2.46,2.46,0,0,1-1.18,2,4,4,0,0,1-2.4.85,4.72,4.72,0,0,1-4.87-4.87V41.76a27.11,27.11,0,0,1,.24-3,28.06,28.06,0,0,0,.25-3V14a37.7,37.7,0,0,0-.68-8,10.76,10.76,0,0,1-.3-2.11,3.38,3.38,0,0,1,1.87-2.76A5.63,5.63,0,0,1,98.31,0,4.91,4.91,0,0,1,101,.93,2.59,2.59,0,0,1,102.37,3a16,16,0,0,1-.52,2.27,25.19,25.19,0,0,0-.52,6q0,1.31-.26,21.7.33-.33,8.81-8,7-6.5,8.24-6.5,4.32,0,4.16,5.28v.82A81.18,81.18,0,0,0,113.21,31q-7,5.45-7,7.23c0,.11,1.47,1.81,4.41,5.12q4.16,4.71,5.22,5.85a30,30,0,0,0,9.14,7Z"/><path class="cls-2" d="M166.88,22.59a18.69,18.69,0,0,1-.24,3.17q-3.16,18.77-17.79,18.76a24.26,24.26,0,0,1-13.41-3.81v1.7c-.05,3.63.27,6.12,1,7.48A16,16,0,0,1,138,53.14,3.83,3.83,0,0,1,136.7,56a4,4,0,0,1-2.88,1.22q-3.66,0-5-2.6a17.79,17.79,0,0,1-1-5.77c-.1-1.84-.16-3.95-.16-6.34a33.51,33.51,0,0,1,.37-4.14,35.31,35.31,0,0,0,.36-4.23V28.6a67.57,67.57,0,0,1,.33-7.19q.41-4.76.4-7V7.07c0-.11-.24-1.57-.73-4.39a6,6,0,0,1,4-1.95,4.22,4.22,0,0,1,3.46,1.59,5.89,5.89,0,0,1,1.29,3.85V7.31Q142.51.25,150.72.24A14.6,14.6,0,0,1,162.9,6q4,5.21,4,13.16v3.42Zm-7.39-1.3a24.22,24.22,0,0,0-1.71-9.59q-2.35-5.37-7.23-5.36-6.26,0-10.72,7.63a25.91,25.91,0,0,0-4,13.41q0,11.29,11.37,11.29a9.46,9.46,0,0,0,8.94-5.28q1.62-2.92,3.09-10.64C159.41,21.72,159.49,21.23,159.49,21.29Z"/><path class="cls-2" d="M200.44,40.22a21.19,21.19,0,0,1-3.66,12.51,13.12,13.12,0,0,1-11.21,5.93c-4.76,0-8.37-1.62-10.8-4.87q-3.35-4.3-3.34-11.7a27.75,27.75,0,0,1,3.66-13.82q4.23-7.71,11-7.71a11.1,11.1,0,0,1,5.28,1.86Q200.45,27.87,200.44,40.22Zm-7.15-.16q0-12.44-6-12.44c-2.87,0-5,1.77-6.5,5.29a23.53,23.53,0,0,0-1.63,9q0,10.81,6.42,10.81,4.14,0,6.18-4.47A19.77,19.77,0,0,0,193.29,40.06Z"/><path class="cls-2" d="M234.56,55.66a3.53,3.53,0,0,1-3,1.86A12,12,0,0,1,227,55.9v-1c0-1.19,0-3,.08-5.28s.08-4,.08-5.12q0-17.39-5.17-17.38c-1,0-2.07.76-3.31,2.27A25.64,25.64,0,0,0,213,46.23a23.8,23.8,0,0,0,.53,4.1,24,24,0,0,1,.53,4.11A2.19,2.19,0,0,1,213,56.31a4,4,0,0,1-2.27.73q-4.87,0-4.88-6.18v-17A18.23,18.23,0,0,1,206,32a16.13,16.13,0,0,0,.17-1.91,20.54,20.54,0,0,0-.29-2.84,20.28,20.28,0,0,1-.28-2.76,3.24,3.24,0,0,1,1.5-2.48,4.57,4.57,0,0,1,2.72-1.18,5.21,5.21,0,0,1,3.66,2l-.24,3.25q3-4.78,7.39-4.79a11.52,11.52,0,0,1,6,1.95,13.45,13.45,0,0,1,4.63,4.38q3.33,6.18,3.33,16.26Z"/><path class="cls-2" d="M268.12,47q0,2.52-3.82,5.93a16.68,16.68,0,0,1-6.13,4,18.16,18.16,0,0,1-5.16.81q-6.42,0-10-4.06a15.2,15.2,0,0,1-3.61-10.49,35.74,35.74,0,0,1,3.33-14Q246.67,20,252,20A15.43,15.43,0,0,1,259,22.26c2.93,1.68,4.63,3.36,5.12,5a17.58,17.58,0,0,1,.65,5,18,18,0,0,1-1.06,5.68c-.86,2.71-2,4.07-3.25,4.07a4.63,4.63,0,0,1-2.6-.81A2.56,2.56,0,0,1,256.42,39s.24-.67.73-1.85a13.73,13.73,0,0,0,.41-4.45,18.07,18.07,0,0,0-.25-3.88c-.32-1.67-1.08-2.51-2.27-2.51-2.66,0-4.71,2.3-6.18,6.89a33.81,33.81,0,0,0-1.62,10.29q0,8.66,5.52,8.66,2.2,0,5-2.27a13.22,13.22,0,0,0,3.66-4.31c.86-1.73,1.92-2.6,3.17-2.6A3.14,3.14,0,0,1,267,44.4,4.36,4.36,0,0,1,268.12,47Z"/><path class="cls-2" d="M298.51,57.52a5.51,5.51,0,0,1-4.07,1.55c-1.13,0-2.3-.71-3.49-2.11V45.91q0-18-5.2-18-5.37,0-5.36,14.54v4.71a25,25,0,0,0,.4,3.7,24.15,24.15,0,0,1,.41,3.7,2.38,2.38,0,0,1-1.26,1.91,4.2,4.2,0,0,1-2.31.85,4.4,4.4,0,0,1-3.46-1.67,5.54,5.54,0,0,1-1.42-3.7l.33-47V3.66q0-2.92,3.25-2.93a6.53,6.53,0,0,1,3.57,1.43c1.35.95,2,1.92,2,2.89a27.23,27.23,0,0,1-.77,5.3,27.43,27.43,0,0,0-.77,5.3q0,2.3.16,7.26a6.31,6.31,0,0,1,3-1.05,18.16,18.16,0,0,1,6.9,1.54A11.88,11.88,0,0,1,297.13,30a25.9,25.9,0,0,1,1.38,9.43Z"/><path class="cls-2" d="M331.66,40.22A21.19,21.19,0,0,1,328,52.73a13.13,13.13,0,0,1-11.21,5.93q-7.16,0-10.81-4.87-3.33-4.3-3.33-11.7a27.75,27.75,0,0,1,3.66-13.82q4.21-7.71,11-7.71a11.17,11.17,0,0,1,5.28,1.86Q331.65,27.87,331.66,40.22Zm-7.15-.16q0-12.44-6-12.44c-2.87,0-5,1.77-6.5,5.29a23.72,23.72,0,0,0-1.62,9q0,10.81,6.42,10.81,4.14,0,6.17-4.47A19.77,19.77,0,0,0,324.51,40.06Z"/></g></g></svg>