<svg xmlns="http://www.w3.org/2000/svg" viewBox="0 0 516.03 515.79"><defs><style>.cls-1{fill:#dc69a6;}.cls-2{fill:#9b4e7e;}.cls-3{fill:#fff;}</style></defs><title>TrashcanButton</title><g id="Layer_2" data-name="Layer 2"><g id="Layer_1-2" data-name="Layer 1"><path class="cls-1" d="M163.57,399.54a16.26,16.26,0,0,1-3.15-8.58c-.41-6.92-.48-13.87-.57-20.81-.23-17.36-.37-34.72-.57-52.09-.14-12.1-.34-24.22-.51-36.32q-.28-19.77-.55-39.53-.25-18-.53-36.05-.3-21-.65-41.94c0-1.59-.3-3.18-.34-4.78-.06-2.48.44-3,2.92-3h5.73l.07-9.9H151a14.8,14.8,0,0,1-.73-3.07c-.08-4.54,0-9.09-.06-13.63,0-2.17,1.22-3,3.05-3.3a14.75,14.75,0,0,1,2.4,0h78.19c.3-2.37,0-4.86,1-6.39.9-1.32,3.39-1.56,6-2.62,3.69-6,10.29-8.16,17.95-8.18s14.34,1.87,18.68,8.92c4.27.72,4.27.72,4.71,8.27H360.9a10.1,10.1,0,0,1,2.4.06c1.55.38,2.77,1.15,2.76,3v.73L514.38,289.47a277.46,277.46,0,0,0,.83-51.6c-5.09-68-33.49-125.5-84.07-171.18C376.3,17.17,311.22-4.75,237.62.86,169.54,6.05,112.2,34.7,66.47,85.31,22.31,134.18.69,192.15,0,262.41c1.32,70.32,28.16,134,83.17,184.85,52.31,48.35,114.28,71,184.28,68.32L163.57,399.81Z"/><path class="cls-2" d="M317.46,394.88c2.31.05,4.62,0,6.94,0,4.09,0,4.9-.81,4.9-5q0-103,0-206c0-.54,0-1.07,0-1.6-.21-2.41-1.3-3.51-3.71-3.58-2-.06-4.1,0-6.15,0-4.43,0-5.25.82-5.25,5.25V383.83c0,2.58,0,5.16,0,7.74A3,3,0,0,0,317.46,394.88Z"/><path class="cls-2" d="M254.62,394.88c2.49,0,5,0,7.48,0,2.22,0,3.37-1.12,3.59-3.34.05-.62,0-1.25,0-1.87V183.93c0-.53,0-1.07,0-1.6-.17-2.39-1.28-3.52-3.69-3.6-2-.06-4.1,0-6.14,0-4.44,0-5.29.84-5.29,5.21v206.8C250.57,393.92,251.51,394.87,254.62,394.88Z"/><path class="cls-2" d="M187,391.51c.19,2.22,1.35,3.34,3.56,3.37,3.11,0,6.23,0,9.28,0,2.24-1.09,2.3-2.81,2.3-4.68q0-103.26,0-206.53c0-.44,0-.89,0-1.34-.14-2.39-1.26-3.54-3.66-3.6-2.58-.06-5.17-.06-7.75,0-2.4.07-3.53,1.22-3.7,3.58,0,.53,0,1.06,0,1.6v206C186.94,390.44,186.9,391,187,391.51Z"/><path class="cls-2" d="M449.41,430.88c37.47-41.51,59.11-88.9,65-141.41L366.06,130.33c0,4.48,0,9-.05,13.43a10.05,10.05,0,0,1-.86,2.76H165.42l-.07,9.9h9l40.36.13,141.63.4h2.56a18.33,18.33,0,0,1,.45,2.79c0,2.22-.18,4.44-.2,6.66q-.3,27-.57,54c-.14,10.95-.35,21.9-.53,32.84q-.28,17.23-.55,34.46-.25,15.88-.52,31.77-.27,16.69-.53,33.38c-.18,11.13-.31,22.25-.57,33.38-.12,5-.84,9.89-4.2,13.94-3.19,3.85-7.15,6.32-12.27,6.33q-81.39,0-162.77,0a16.43,16.43,0,0,1-13-6.95v.27L267.45,515.58c3.63-.14,7.28-.32,11-.59C346.38,509.94,403.79,481.43,449.41,430.88Z"/><path class="cls-3" d="M363.3,126.55a10.1,10.1,0,0,0-2.4-.06H282.23c-.44-7.55-.44-7.55-4.71-8.27-4.34-7-11-8.94-18.68-8.92s-14.26,2.2-17.95,8.18c-2.65,1.06-5.14,1.3-6,2.62-1.06,1.53-.72,4-1,6.39H155.64a14.75,14.75,0,0,0-2.4,0c-1.83.31-3.08,1.13-3.05,3.3.07,4.54,0,9.09.06,13.63a14.8,14.8,0,0,0,.73,3.07h14.44l.15-19.71,200,3,.49.52v-.73C366.07,127.7,364.85,126.93,363.3,126.55Z"/><path class="cls-3" d="M165.57,126.81l-.15,19.71H365.15a10.05,10.05,0,0,0,.86-2.76c.08-4.47,0-8.95.05-13.43l-.49-.52Z"/><path class="cls-3" d="M156.7,159.44c0,1.6.31,3.19.34,4.78q.35,21,.65,41.94.28,18,.53,36.05.27,19.77.55,39.53c.17,12.1.37,24.22.51,36.32.2,17.37.34,34.73.57,52.09.09,6.94.16,13.89.57,20.81a16.26,16.26,0,0,0,3.15,8.58l1.78-243.12h-5.73C157.14,156.45,156.64,157,156.7,159.44Z"/><path class="cls-3" d="M176.6,406.49q81.39,0,162.77,0c5.12,0,9.08-2.48,12.27-6.33,3.36-4.05,4.08-8.94,4.2-13.94.26-11.13.39-22.25.57-33.38s.35-22.25.53-33.38q.27-15.88.52-31.77.29-17.22.55-34.46c.18-10.94.39-21.89.53-32.84q.31-27,.57-54c0-2.22.19-4.44.2-6.66a18.33,18.33,0,0,0-.45-2.79H356.3l-141.63-.4-40.36-.13h-9l-1.78,243.12A16.43,16.43,0,0,0,176.6,406.49Zm137.59-22.66V184c0-4.43.82-5.25,5.25-5.25,2.05,0,4.1-.05,6.15,0,2.41.07,3.5,1.17,3.71,3.58.05.53,0,1.06,0,1.6q0,103,0,206c0,4.16-.81,5-4.9,5-2.32,0-4.63,0-6.94,0a3,3,0,0,1-3.26-3.31C314.15,389,314.19,386.41,314.19,383.83Zm-63.62-199.9c0-4.37.85-5.21,5.29-5.21,2,0,4.1-.05,6.14,0,2.41.08,3.52,1.21,3.69,3.6,0,.53,0,1.07,0,1.6V389.67c0,.62,0,1.25,0,1.87-.22,2.22-1.37,3.31-3.59,3.34-2.49,0-5,0-7.48,0-3.11,0-4.05-1-4.05-4.15ZM187,182.31c.17-2.36,1.3-3.51,3.7-3.58,2.58-.06,5.17-.06,7.75,0,2.4.06,3.52,1.21,3.66,3.6,0,.45,0,.9,0,1.34q0,103.26,0,206.53c0,1.87-.06,3.59-2.3,4.68-3,0-6.17,0-9.28,0-2.21,0-3.37-1.15-3.56-3.37,0-.53,0-1.07,0-1.6v-206C186.94,183.37,186.91,182.84,187,182.31Z"/></g></g></svg>