<svg xmlns="http://www.w3.org/2000/svg" viewBox="0 0 198 198"><defs><style>.cls-1{fill:#96af76;}.cls-2{fill:#798c5b;}.cls-3{fill:#fff;}</style></defs><title>NeutralButton</title><g id="Layer_2" data-name="Layer 2"><g id="Layer_1-2" data-name="Layer 1"><path class="cls-1" d="M66.53,91.53l47,35,42-28,14-37,28,27.32A99,99,0,1,0,86.56,197.22l-61-70.69Z"/><path class="cls-2" d="M198,99a100,100,0,0,0-.51-10.15l-28-27.32-14,37-42,28-47-35-41,35,61,70.69A100.11,100.11,0,0,0,99,198,99,99,0,0,0,198,99Z"/><path class="cls-3" d="M25.94,126.07c-4.84-3-1.82-17.6,2.63-26.74,1.52-3.12,9.09-14.36,21-20.52,32.63-16.87,61.88,28.13,61.88,28.13s14.62,21.38,49.5-41.63c2-1.75,5.92-4.66,9-3.5,5.14,1.94,4.63,13.85,4.49,17-1.09,25-32.09,61.08-59.63,57.38-23.23-3.12-27.2-32.29-48.94-32.06C45.45,104.34,32.87,130.28,25.94,126.07Z"/></g></g></svg>