<svg xmlns="http://www.w3.org/2000/svg" viewBox="0 0 337.3 337.11"><defs><style>.cls-1{fill:#a5bd42;}.cls-2{fill:#859b43;}.cls-3{fill:#fefefd;}.cls-4{fill:#fdfefc;}</style></defs><title>LikeButton</title><g id="Layer_2" data-name="Layer 2"><g id="Layer_1-2" data-name="Layer 1"><g id="DpKqhb"><path class="cls-1" d="M159,336.86c-4.69-.41-9.41-.65-14.07-1.26a158.56,158.56,0,0,1-29.93-7,166.72,166.72,0,0,1-50-26.86,169.9,169.9,0,0,1-42.2-48.28A165.26,165.26,0,0,1,7.09,217.13,169.59,169.59,0,0,1,.22,160,166.21,166.21,0,0,1,9.37,113,168.87,168.87,0,0,1,220.8,8.22a165.87,165.87,0,0,1,35.37,16.19A169.39,169.39,0,0,1,320.39,95a165.63,165.63,0,0,1,14.53,45.56,175.63,175.63,0,0,1,2.3,24,2.07,2.07,0,0,1-.09.4c-.38-.33-.8-.62-1.15-1q-6.39-6.37-12.76-12.76c-6-6-12-12.08-18-18.1-5.72-5.72-11.5-11.38-17.22-17.09q-13.65-13.62-27.27-27.27c-4.43-4.44-8.83-8.93-13.26-13.39q-7.75-7.8-15.57-15.55a33.27,33.27,0,0,0-2.84-2.31,17.06,17.06,0,0,0-5.45-5.21c-6.3-3.64-13-1.67-16.24,4.85-1.16,2.36-2.2,4.79-3.13,7.25-2.47,6.57-4.52,13.31-8.25,19.34-2.48,4-4.72,8.22-8.41,11.3-3.44,2.87-7.08,5.5-10.57,8.31-5.11,4.11-10.57,7.88-15.13,12.53-5.88,6-11.08,12.63-16.45,19.1-3.84,4.61-7.35,9.5-11.26,14.06-2.69,3.14-5.61,6.15-9.77,7.53s-7.45,3.83-8.7,8.34a1.46,1.46,0,0,1-.24.33c-.17-.06-.39-.06-.51-.18-2.27-2.29-4.53-4.6-6.8-6.9-.5-.51-1-1-1.53-1.51a9.74,9.74,0,0,0-5.68-3.49,29.66,29.66,0,0,0-5.74-.89c-4.48-.06-9,.07-13.45.2-6.78.19-10.73,3.25-12.79,9.66-1.74,5.45-2,11.1-2.08,16.74s.2,11.46.36,17.2a262.41,262.41,0,0,0,3.45,35.72,91,91,0,0,0,4.73,18.66c1,2.45,2,4.89,4.38,6.41a5.5,5.5,0,0,0,.59.89c2.39,2.42,4.8,4.83,7.2,7.24q3.88,3.93,7.78,7.85t8,8l7.74,7.69q3.81,3.78,7.6,7.58,4,4,8,8c2.15,2.15,4.33,4.26,6.47,6.41s4.45,4.54,6.68,6.8l7.9,7.9c2.61,2.6,5.25,5.16,7.83,7.79C156.81,334.21,157.88,335.56,159,336.86Z"/><path class="cls-2" d="M229.09,57.48a33.27,33.27,0,0,1,2.84,2.31q7.81,7.74,15.57,15.55c4.43,4.46,8.83,9,13.26,13.39Q274.38,102.38,288,116c5.72,5.71,11.5,11.37,17.22,17.09,6,6,12,12.08,18,18.1Q329.58,157.6,336,164c.35.35.77.64,1.15,1,.05,2.77.27,5.54.12,8.3-.31,5.45-.7,10.9-1.29,16.32a154.66,154.66,0,0,1-6.45,29.92,163.64,163.64,0,0,1-13.15,30.68A170.1,170.1,0,0,1,263.66,308a167.55,167.55,0,0,1-43.75,21.36,159.06,159.06,0,0,1-38.31,7.41c-7,.45-14.06.25-21.08.33a8.7,8.7,0,0,1-1.5-.25c-1.14-1.3-2.21-2.65-3.41-3.88-2.58-2.63-5.22-5.19-7.83-7.79l-7.9-7.9c-2.23-2.26-4.44-4.55-6.68-6.8s-4.32-4.26-6.47-6.41q-4-4-8-8-3.8-3.79-7.6-7.58l-7.74-7.69q-4-4-8-8T87.62,265c-2.4-2.41-4.81-4.82-7.2-7.24a5.5,5.5,0,0,1-.59-.89,66.14,66.14,0,0,0,25.43,1.8,26.35,26.35,0,0,0,7.64-2.26c2.82-1.29,3.66-3.82,2.67-6.77-.46-1.34-1.22-2.58-1.82-3.89-2.76-6.08-4-12.6-4.94-19.13A293.48,293.48,0,0,1,106,175.53,107.13,107.13,0,0,1,107,163.4c.33-2.34.63-4.57-.38-6.78.51.5,1,1,1.53,1.51,2.27,2.3,4.53,4.61,6.8,6.9.12.12.34.12.51.18a2.51,2.51,0,0,1-.06.55,68.72,68.72,0,0,0-2.76,20.55A137.22,137.22,0,0,0,118,225c1.9,6.6,4.28,13,8.39,18.63a11.5,11.5,0,0,0,7.16,4.89c6,1.16,12.05,2.48,18.13,3.35,8.14,1.17,16.33,2.13,24.52,2.89,9.3.86,18.62,1.69,28,2A214.69,214.69,0,0,0,237.9,255c5.31-.67,10.23-2.06,14.35-5.62,6.1-5.28,10.42-11.61,10.69-19.93A17.4,17.4,0,0,1,266.62,219c.28-.37.5-.78.74-1.17,4.64-7.31,5.3-15,2.31-23.09a7.13,7.13,0,0,1-.13-5.53,15.69,15.69,0,0,1,1.86-2.9c4-5.37,4.68-11.07,1.63-17.08a60.38,60.38,0,0,0-3.71-6.17,9,9,0,0,1-1.49-7,84.5,84.5,0,0,0,1.3-8.49c.48-6.57-1.32-12.39-6.38-16.88a28.37,28.37,0,0,0-12.76-6.1c-10.08-2.37-20.21-1.89-30.35-.42-1.92.28-3.82.72-5.75.93-1.69.18-2.26-.71-1.47-2.2a18.56,18.56,0,0,1,1.45-2.2c4.49-6.1,9.35-12,13.06-18.61,4.34-7.76,7.07-16,6.84-25A50.82,50.82,0,0,0,229.09,57.48Z"/><path class="cls-3" d="M229.09,57.48a50.82,50.82,0,0,1,4.68,19.7c.23,9-2.5,17.21-6.84,25-3.71,6.66-8.57,12.51-13.06,18.61a18.56,18.56,0,0,0-1.45,2.2c-.79,1.49-.22,2.38,1.47,2.2,1.93-.21,3.83-.65,5.75-.93,10.14-1.47,20.27-2,30.35.42a28.37,28.37,0,0,1,12.76,6.1c5.06,4.49,6.86,10.31,6.38,16.88a84.5,84.5,0,0,1-1.3,8.49,9,9,0,0,0,1.49,7,60.38,60.38,0,0,1,3.71,6.17c3.05,6,2.32,11.71-1.63,17.08a15.69,15.69,0,0,0-1.86,2.9,7.13,7.13,0,0,0,.13,5.53c3,8.06,2.33,15.78-2.31,23.09-.24.39-.46.8-.74,1.17a17.4,17.4,0,0,0-3.68,10.37c-.27,8.32-4.59,14.65-10.69,19.93-4.12,3.56-9,4.95-14.35,5.62a214.69,214.69,0,0,1-33.79,1.74c-9.33-.3-18.65-1.13-28-2-8.19-.76-16.38-1.72-24.52-2.89-6.08-.87-12.1-2.19-18.13-3.35a11.5,11.5,0,0,1-7.16-4.89c-4.11-5.62-6.49-12-8.39-18.63a137.22,137.22,0,0,1-5.29-38.64,68.72,68.72,0,0,1,2.76-20.55,2.51,2.51,0,0,0,.06-.55,1.46,1.46,0,0,0,.24-.33c1.25-4.51,4.51-7,8.7-8.34s7.08-4.39,9.77-7.53c3.91-4.56,7.42-9.45,11.26-14.06,5.37-6.47,10.57-13.12,16.45-19.1,4.56-4.65,10-8.42,15.13-12.53,3.49-2.81,7.13-5.44,10.57-8.31,3.69-3.08,5.93-7.29,8.41-11.3,3.73-6,5.78-12.77,8.25-19.34.93-2.46,2-4.89,3.13-7.25,3.2-6.52,9.94-8.49,16.24-4.85A17.06,17.06,0,0,1,229.09,57.48Z"/><path class="cls-4" d="M106.65,156.62c1,2.21.71,4.44.38,6.78A107.13,107.13,0,0,0,106,175.53a293.48,293.48,0,0,0,2.85,51.05c1,6.53,2.18,13,4.94,19.13.6,1.31,1.36,2.55,1.82,3.89,1,3,.15,5.48-2.67,6.77a26.35,26.35,0,0,1-7.64,2.26,66.14,66.14,0,0,1-25.43-1.8c-2.36-1.52-3.41-4-4.38-6.41a91,91,0,0,1-4.73-18.66A262.41,262.41,0,0,1,67.27,196c-.16-5.74-.43-11.47-.36-17.2s.34-11.29,2.08-16.74c2.06-6.41,6-9.47,12.79-9.66,4.48-.13,9-.26,13.45-.2a29.66,29.66,0,0,1,5.74.89A9.74,9.74,0,0,1,106.65,156.62Z"/></g></g></g></svg>