<svg xmlns="http://www.w3.org/2000/svg" viewBox="0 0 337.27 337.33"><defs><style>.cls-1{fill:#d04a2b;}.cls-2{fill:#a8402a;}.cls-3{fill:#fefefd;}.cls-4{fill:#fefdfd;}</style></defs><title>DislikeButton</title><g id="Layer_2" data-name="Layer 2"><g id="Layer_1-2" data-name="Layer 1"><g id="DpKqhb"><path class="cls-1" d="M218.63,329.69l-.56.19-.54.09c-2.59.76-5.16,1.6-7.78,2.27A168.47,168.47,0,0,1,43.44,281.66,166.82,166.82,0,0,1,3.7,204,165.07,165.07,0,0,1,.25,177.88,169.58,169.58,0,0,1,1.94,143,168.52,168.52,0,0,1,172,0,168.52,168.52,0,0,1,337.26,171c0,.37-.06.73-.1,1.1l-.35-1.26-.21,1.24c-.28-.25-.5-.41-.69-.59l-9.16-9.16L313,148.56q-11.9-11.9-23.79-23.81c-2.92-2.93-5.74-6-8.66-8.89-2.05-2-4.2-4-6.26-6-2.37-2.35-4.69-4.75-7-7.12-2.12-2.15-4.22-4.33-6.4-6.43a24.31,24.31,0,0,0-2.62-2l0-.05-.72-.93,0,0-.27-.33a5.44,5.44,0,0,1-.49-.47c-4.48-5.47-9.95-9-17.17-10a227.84,227.84,0,0,0-39.75-1.87c-8.45.35-16.9,1.09-25.3,2q-17,1.92-33.83,4.52c-4.91.75-10.1,1.28-13.73,5.45l-.26.34,0,0-.32.29h0a9.14,9.14,0,0,1-2.12-1.21c-2.73-2.79-5.38-5.67-8.08-8.49-.16-.17-.48-.19-.72-.27h0l-.34-.57.06,0-.32-.34-.2-.26-.33-.3a13.67,13.67,0,0,0-6.27-2.77,64.65,64.65,0,0,0-27.37,1.13,5.73,5.73,0,0,0-3.07,2.36,29.74,29.74,0,0,0-2.92,6.1,118.07,118.07,0,0,0-5.3,25.48c-.91,8-1.62,16-2.08,24-.58,10-1,20,.13,29.95.64,5.43,1.8,10.7,6.32,14.47l.37.35a.26.26,0,0,1,.21.06l.65.49h.09l.1,0a6.55,6.55,0,0,0,.75,1.11c2.64,2.68,5.31,5.34,8,8l15.38,15.39,21,21q13.25,13.23,26.48,26.48,15.51,15.5,31,31l19.44,19.44c3.37,3.36,6.75,6.72,10.09,10.1,3.93,4,7.82,8,11.75,12,.51.52.53.89,0,1.34l0,0Z"/><path class="cls-2" d="M115.52,83.34c.24.08.56.1.72.27,2.7,2.82,5.35,5.7,8.08,8.49a9.14,9.14,0,0,0,2.12,1.21c-.22.4-.4.82-.66,1.2a50,50,0,0,0-6.26,12.95,133.37,133.37,0,0,0-6.81,43.4,68,68,0,0,0,2.84,21c1.28,4,3.42,7,7.57,8.35,5.17,1.64,8.88,5.29,12.19,9.3,4.23,5.15,8.2,10.5,12.35,15.72,5.29,6.67,10.54,13.43,17,19,5.78,4.92,12,9.3,17.9,14.06,2.9,2.34,6,4.68,8.23,7.59a71.4,71.4,0,0,1,11,20.15c1.75,4.92,3.71,9.77,5.81,14.55a9.9,9.9,0,0,0,8.15,6.16A13.56,13.56,0,0,0,229.39,279a46,46,0,0,0,3.82-26.81c-1.38-8.34-5-15.76-9.77-22.63-3.27-4.71-6.82-9.22-10.16-13.89-.59-.82-1.29-2.2-1-2.91.55-1.26,2-.54,3.13-.42,5.79.61,11.57,1.52,17.37,1.81,7.86.4,15.65-.34,23-3.4,7.59-3.16,12.39-8.57,13.26-17A36,36,0,0,0,268,181.93a9.32,9.32,0,0,1,1.61-8.13,40.21,40.21,0,0,0,3.49-5.82,15.77,15.77,0,0,0,1.78-8.58c-.33-3.67-2.09-6.67-4.23-9.5a6.84,6.84,0,0,1-.91-7.42c1.75-3.89,1.84-8,1.57-12.11-.32-4.83-2.44-9-5.16-12.84-2-2.8-3.32-5.75-3.1-9.29a16.23,16.23,0,0,0-.33-3.31,27.52,27.52,0,0,0-4.51-10.64,24.31,24.31,0,0,1,2.62,2c2.18,2.1,4.28,4.28,6.4,6.43,2.35,2.37,4.67,4.77,7,7.12,2.06,2,4.21,4,6.26,6,2.92,2.94,5.74,6,8.66,8.89Q301,136.67,313,148.56l13.8,13.8,9.16,9.16c.19.18.41.34.69.59l.21-1.24.35,1.26c-.17,3.92-.19,7.86-.53,11.77a165.4,165.4,0,0,1-5.53,30.24,169.24,169.24,0,0,1-85.34,104.58,158.74,158.74,0,0,1-25.6,10.57c-.31.09-.63.12-.95.18.52-.45.5-.82,0-1.34-3.93-4-7.82-8-11.75-12-3.34-3.38-6.72-6.74-10.09-10.1l-19.44-19.44q-15.49-15.5-31-31-13.23-13.25-26.48-26.48l-21-21L84,192.69c-2.67-2.66-5.34-5.32-8-8a6.55,6.55,0,0,1-.75-1.11,26.19,26.19,0,0,0,4.54,1.06c4.52.29,9.06.63,13.57.47a35.44,35.44,0,0,0,9.36-1.64c3.88-1.23,5.15-4.19,4.55-8.22A101.07,101.07,0,0,1,106,163a289.83,289.83,0,0,1,3-53c1.13-7.32,2.55-14.57,6.18-21.19A6.53,6.53,0,0,0,115.52,83.34Z"/><path class="cls-2" d="M218.63,329.69l.62-.24Z"/><path class="cls-2" d="M217.53,330l.54-.09Z"/><path class="cls-3" d="M258.18,94.29a27.52,27.52,0,0,1,4.51,10.64,16.23,16.23,0,0,1,.33,3.31c-.22,3.54,1.13,6.49,3.1,9.29,2.72,3.87,4.84,8,5.16,12.84.27,4.12.18,8.22-1.57,12.11a6.84,6.84,0,0,0,.91,7.42c2.14,2.83,3.9,5.83,4.23,9.5a15.77,15.77,0,0,1-1.78,8.58,40.21,40.21,0,0,1-3.49,5.82,9.32,9.32,0,0,0-1.61,8.13,36,36,0,0,1,1.12,11.83c-.87,8.43-5.67,13.84-13.26,17-7.38,3.06-15.17,3.8-23,3.4-5.8-.29-11.58-1.2-17.37-1.81-1.1-.12-2.58-.84-3.13.42-.31.71.39,2.09,1,2.91,3.34,4.67,6.89,9.18,10.16,13.89,4.77,6.87,8.39,14.29,9.77,22.63A46,46,0,0,1,229.39,279a13.56,13.56,0,0,1-13.64,7.65,9.9,9.9,0,0,1-8.15-6.16c-2.1-4.78-4.06-9.63-5.81-14.55a71.4,71.4,0,0,0-11-20.15c-2.27-2.91-5.33-5.25-8.23-7.59-5.91-4.76-12.12-9.14-17.9-14.06-6.5-5.53-11.75-12.29-17-19-4.15-5.22-8.12-10.57-12.35-15.72-3.31-4-7-7.66-12.19-9.3-4.15-1.31-6.29-4.38-7.57-8.35a68,68,0,0,1-2.84-21,133.37,133.37,0,0,1,6.81-43.4,50,50,0,0,1,6.26-12.95c.26-.38.44-.8.66-1.2h0l.32-.29,0,0,.26-.34c3.63-4.17,8.82-4.7,13.73-5.45q16.88-2.58,33.83-4.52c8.4-1,16.85-1.7,25.3-2a227.84,227.84,0,0,1,39.75,1.87c7.22,1,12.69,4.49,17.17,10a5.44,5.44,0,0,0,.49.47l.27.33,0,0,.72.93Z"/><path class="cls-4" d="M115.52,83.34a6.53,6.53,0,0,1-.41,5.5c-3.63,6.62-5,13.87-6.18,21.19a289.83,289.83,0,0,0-3,53,101.07,101.07,0,0,0,1.32,12.24c.6,4-.67,7-4.55,8.22a35.44,35.44,0,0,1-9.36,1.64c-4.51.16-9-.18-13.57-.47a26.19,26.19,0,0,1-4.54-1.06l-.1,0h-.09l-.65-.49a.26.26,0,0,0-.21-.06l-.37-.35c-4.52-3.77-5.68-9-6.32-14.47-1.17-10-.71-20-.13-29.95.46-8,1.17-16.05,2.08-24a118.07,118.07,0,0,1,5.3-25.48,29.74,29.74,0,0,1,2.92-6.1,5.73,5.73,0,0,1,3.07-2.36,64.65,64.65,0,0,1,27.37-1.13,13.67,13.67,0,0,1,6.27,2.77l.33.3.2.26.32.34-.06,0c.12.19.23.38.34.57Z"/><path class="cls-2" d="M258.21,94.24l-.72-.93Z"/><path class="cls-2" d="M74.44,183.07l.65.49Z"/><path class="cls-2" d="M115.55,83.33c-.11-.19-.22-.38-.34-.57C115.33,83,115.44,83.14,115.55,83.33Z"/><path class="cls-2" d="M257.51,93.33l-.27-.33Z"/><path class="cls-2" d="M114.75,82.2l-.33-.3Z"/><path class="cls-2" d="M115.27,82.8l-.32-.34Z"/><path class="cls-2" d="M127,92.72l-.26.34Z"/><path class="cls-2" d="M126.74,93l-.32.29Z"/><path class="cls-2" d="M73.86,182.66l.37.35Z"/></g></g></g></svg>