<svg xmlns="http://www.w3.org/2000/svg" viewBox="0 0 331.66 215.01"><defs><style>.cls-1{fill:#dc69a6;}.cls-2{fill:#e2e1fe;}</style></defs><title>PinkPoncho</title><g id="Layer_2" data-name="Layer 2"><g id="Layer_1-2" data-name="Layer 1"><path class="cls-1" d="M39.16,176.58a18.69,18.69,0,0,1-.24,3.17q-3.16,18.76-17.8,18.77a24.17,24.17,0,0,1-13.4-3.82v1.71c-.06,3.63.27,6.12,1,7.47a16,16,0,0,1,1.55,3.25A3.81,3.81,0,0,1,9,210a4,4,0,0,1-2.89,1.22c-2.43,0-4.09-.86-4.95-2.6a17.79,17.79,0,0,1-1-5.77Q0,200.06,0,196.49a33.63,33.63,0,0,1,.37-4.15,35.34,35.34,0,0,0,.36-4.22v-5.53a65.06,65.06,0,0,1,.33-7.19q.41-4.76.4-7v-7.31c0-.11-.24-1.57-.73-4.39a6,6,0,0,1,4-1.95,4.23,4.23,0,0,1,3.46,1.59,6,6,0,0,1,1.29,3.86v1.14q5.36-7.08,13.56-7.07A14.58,14.58,0,0,1,35.18,160q4,5.19,4,13.16v3.41Zm-7.39-1.3a24.25,24.25,0,0,0-1.71-9.59q-2.36-5.35-7.23-5.36-6.25,0-10.72,7.64a25.86,25.86,0,0,0-4,13.4q0,11.3,11.38,11.3a9.48,9.48,0,0,0,8.94-5.28q1.62-2.92,3.09-10.65C31.69,175.72,31.77,175.23,31.77,175.28Z"/><path class="cls-1" d="M53.87,178.94a19.24,19.24,0,0,1-.65,4.14,18.63,18.63,0,0,0-.65,4.14V204a19.66,19.66,0,0,0,1,4.88,3.4,3.4,0,0,1-2.7,1.87q-5.18,0-5.67-5.12-.81-9.51-.81-14.3A117.48,117.48,0,0,1,45,177.8V177c0-1,.75-1.47,2.26-1.47a10.7,10.7,0,0,1,4,.82C53,176.93,53.87,177.8,53.87,178.94Zm.73-11.38a3.85,3.85,0,0,1-1.22,2.93,4.22,4.22,0,0,1-3,1.13,6.17,6.17,0,0,1-3.94-1.46,4.43,4.43,0,0,1-1.82-3.57,3.74,3.74,0,0,1,1.26-2.93A4.46,4.46,0,0,1,49,162.52a5.89,5.89,0,0,1,3.9,1.43A4.48,4.48,0,0,1,54.6,167.56Z"/><path class="cls-1" d="M87.42,209.65a3.54,3.54,0,0,1-3,1.87,11.93,11.93,0,0,1-4.55-1.63v-1c0-1.19,0-2.95.08-5.28s.08-4,.08-5.12q0-17.39-5.17-17.39c-1,0-2.07.76-3.31,2.28a25.6,25.6,0,0,0-5.74,16.81,23.89,23.89,0,0,0,.53,4.11,23.8,23.8,0,0,1,.53,4.1,2.21,2.21,0,0,1-1.06,1.87,3.88,3.88,0,0,1-2.27.73q-4.87,0-4.88-6.17v-17a15.54,15.54,0,0,1,.16-1.9,16.31,16.31,0,0,0,.17-1.91,20.79,20.79,0,0,0-.29-2.85,20,20,0,0,1-.28-2.76,3.25,3.25,0,0,1,1.5-2.48,4.63,4.63,0,0,1,2.72-1.18,5.21,5.21,0,0,1,3.66,2l-.25,3.25q3-4.78,7.4-4.79a11.55,11.55,0,0,1,6,1.95,13.38,13.38,0,0,1,4.63,4.39q3.33,6.18,3.33,16.25Z"/><path class="cls-1" d="M125,212.74c-2.06,1.51-3.68,2.27-4.88,2.27q-2.35,0-6.82-4.87-3.17-3.42-6.26-6.91c-1.19-1.41-3.08-3.38-5.68-5.93l-.25.16v7.15a5.55,5.55,0,0,0,.53,1.91,5.61,5.61,0,0,1,.53,2,2.46,2.46,0,0,1-1.18,2,4.06,4.06,0,0,1-2.4.86,4.74,4.74,0,0,1-4.87-4.88V195.76a27.43,27.43,0,0,1,.24-3,28.06,28.06,0,0,0,.25-3V168a37.57,37.57,0,0,0-.68-8,10.84,10.84,0,0,1-.3-2.12,3.38,3.38,0,0,1,1.87-2.76A5.63,5.63,0,0,1,98.31,154a4.85,4.85,0,0,1,2.64.94,2.56,2.56,0,0,1,1.42,2.07,15.7,15.7,0,0,1-.52,2.27,25.23,25.23,0,0,0-.52,6q0,1.29-.26,21.69.33-.33,8.81-8,7-6.51,8.24-6.5,4.32,0,4.16,5.28v.81a82.53,82.53,0,0,0-9.07,6.42q-7,5.45-7,7.23,0,.16,4.41,5.12,4.16,4.71,5.22,5.85a30.27,30.27,0,0,0,9.14,7Z"/><path class="cls-2" d="M166.88,176.58a18.69,18.69,0,0,1-.24,3.17q-3.16,18.76-17.79,18.77a24.18,24.18,0,0,1-13.41-3.82v1.71c-.05,3.63.27,6.12,1,7.47a16.27,16.27,0,0,1,1.54,3.25A3.81,3.81,0,0,1,136.7,210a4,4,0,0,1-2.88,1.22c-2.44,0-4.09-.86-5-2.6a17.79,17.79,0,0,1-1-5.77c-.1-1.84-.16-3.95-.16-6.33a33.63,33.63,0,0,1,.37-4.15,35.34,35.34,0,0,0,.36-4.22v-5.53a67.67,67.67,0,0,1,.33-7.19q.41-4.76.4-7v-7.31c0-.11-.24-1.57-.73-4.39a6,6,0,0,1,4-1.95,4.22,4.22,0,0,1,3.46,1.59,5.9,5.9,0,0,1,1.29,3.86v1.14q5.35-7.08,13.57-7.07A14.57,14.57,0,0,1,162.9,160q4,5.19,4,13.16v3.41Zm-7.39-1.3a24.25,24.25,0,0,0-1.71-9.59q-2.35-5.35-7.23-5.36-6.26,0-10.72,7.64a25.85,25.85,0,0,0-4,13.4q0,11.3,11.37,11.3a9.48,9.48,0,0,0,8.94-5.28q1.62-2.92,3.09-10.65C159.41,175.72,159.49,175.23,159.49,175.28Z"/><path class="cls-2" d="M200.44,194.21a21.15,21.15,0,0,1-3.66,12.51,13.11,13.11,0,0,1-11.21,5.94c-4.76,0-8.37-1.63-10.8-4.88q-3.35-4.31-3.34-11.7a27.72,27.72,0,0,1,3.66-13.81q4.23-7.72,11-7.72a11,11,0,0,1,5.28,1.87Q200.45,181.87,200.44,194.21Zm-7.15-.16q0-12.44-6-12.43-4.31,0-6.5,5.28a23.55,23.55,0,0,0-1.63,9q0,10.8,6.42,10.8c2.76,0,4.82-1.48,6.18-4.46A19.82,19.82,0,0,0,193.29,194.05Z"/><path class="cls-2" d="M234.56,209.65a3.54,3.54,0,0,1-3,1.87,11.93,11.93,0,0,1-4.55-1.63v-1c0-1.19,0-2.95.08-5.28s.08-4,.08-5.12q0-17.39-5.17-17.39c-1,0-2.07.76-3.31,2.28A25.6,25.6,0,0,0,213,200.22a23.89,23.89,0,0,0,.53,4.11,23.8,23.8,0,0,1,.53,4.1A2.19,2.19,0,0,1,213,210.3a3.88,3.88,0,0,1-2.27.73q-4.87,0-4.88-6.17v-17A17.88,17.88,0,0,1,206,186a16.31,16.31,0,0,0,.17-1.91,20.79,20.79,0,0,0-.29-2.85,20,20,0,0,1-.28-2.76,3.25,3.25,0,0,1,1.5-2.48,4.63,4.63,0,0,1,2.72-1.18,5.21,5.21,0,0,1,3.66,2l-.24,3.25q3-4.78,7.39-4.79a11.52,11.52,0,0,1,6,1.95,13.38,13.38,0,0,1,4.63,4.39q3.33,6.18,3.33,16.25Z"/><path class="cls-2" d="M268.12,201c0,1.68-1.27,3.65-3.82,5.93a16.63,16.63,0,0,1-6.13,4,18.16,18.16,0,0,1-5.16.81q-6.42,0-10-4.06a15.17,15.17,0,0,1-3.61-10.48,35.78,35.78,0,0,1,3.33-14q4-9.26,9.26-9.26a15.35,15.35,0,0,1,7.07,2.28c2.93,1.67,4.63,3.35,5.12,5a17.63,17.63,0,0,1,.65,5,18.11,18.11,0,0,1-1.06,5.69c-.86,2.71-2,4.06-3.25,4.06a4.63,4.63,0,0,1-2.6-.81,2.56,2.56,0,0,1-1.46-2.18s.24-.67.73-1.86a13.69,13.69,0,0,0,.41-4.45,18.14,18.14,0,0,0-.25-3.88c-.32-1.67-1.08-2.5-2.27-2.5-2.66,0-4.71,2.29-6.18,6.88a33.81,33.81,0,0,0-1.62,10.29q0,8.67,5.52,8.67,2.2,0,5-2.28a13.12,13.12,0,0,0,3.66-4.31c.86-1.73,1.92-2.6,3.17-2.6A3.13,3.13,0,0,1,267,198.4,4.32,4.32,0,0,1,268.12,201Z"/><path class="cls-2" d="M298.51,211.52a5.5,5.5,0,0,1-4.07,1.54c-1.13,0-2.3-.7-3.49-2.11v-11q0-18-5.2-18-5.37,0-5.36,14.55v4.71a25.06,25.06,0,0,0,.4,3.69,24.27,24.27,0,0,1,.41,3.7,2.36,2.36,0,0,1-1.26,1.91,4.2,4.2,0,0,1-2.31.85,4.39,4.39,0,0,1-3.46-1.66,5.59,5.59,0,0,1-1.42-3.71l.33-47v-1.22q0-2.93,3.25-2.93a6.53,6.53,0,0,1,3.57,1.43c1.35.95,2,1.92,2,2.9a27.43,27.43,0,0,1-.77,5.3,27.33,27.33,0,0,0-.77,5.3q0,2.28.16,7.26a6.23,6.23,0,0,1,3-1.06,18.16,18.16,0,0,1,6.9,1.54,11.91,11.91,0,0,1,6.67,6.58,25.9,25.9,0,0,1,1.38,9.43Z"/><path class="cls-2" d="M331.66,194.21A21.15,21.15,0,0,1,328,206.72a13.12,13.12,0,0,1-11.21,5.94q-7.16,0-10.81-4.88-3.33-4.31-3.33-11.7a27.72,27.72,0,0,1,3.66-13.81q4.21-7.72,11-7.72a11.09,11.09,0,0,1,5.28,1.87Q331.65,181.87,331.66,194.21Zm-7.15-.16q0-12.44-6-12.43c-2.87,0-5,1.76-6.5,5.28a23.74,23.74,0,0,0-1.62,9q0,10.8,6.42,10.8c2.76,0,4.82-1.48,6.17-4.46A19.82,19.82,0,0,0,324.51,194.05Z"/><g id="_0ffGbU.tif" data-name="0ffGbU.tif"><path class="cls-2" d="M246.48,79.83c-3.3-11.5-6.49-23-9.81-34.52A123.11,123.11,0,0,0,225,17.54a21.36,21.36,0,0,0-10.32-9c-9.36-4-19.16-6.49-29.13-8.4a2.29,2.29,0,0,0-2.47,1,48.75,48.75,0,0,1-14.38,12.2,15.08,15.08,0,0,1-14.63.56A56,56,0,0,1,137.29,1.15,2.83,2.83,0,0,0,134.61,0c-9,1.19-17.81,2.86-26.23,6.34-4.59,1.89-8.46,4.6-11.11,9a126.76,126.76,0,0,0-12,25.83C81.05,53.93,77.4,66.87,73.45,79.71a2,2,0,0,0,.94,2.7c4.51,3,9,6,13.41,9.1q17.72,12.1,35.43,24.21c11.87,8.08,23.8,16.08,35.7,24.14.48.33.91.76,1.36,1.14H161a10.34,10.34,0,0,1,1.06-.94c14.83-10,29.76-19.78,44.47-29.92,13.18-9.1,26.11-18.57,39.17-27.83A1.91,1.91,0,0,0,246.48,79.83ZM100.18,26.16c5.52-10.55,5.69-11.52,18.92-15.28a114.68,114.68,0,0,1,12.81-2.54,3.44,3.44,0,0,1,2.48,1,66.81,66.81,0,0,0,15.3,11.12c8,4.11,15.79,3.79,23.52-.69a61.87,61.87,0,0,0,12.93-10.3,2.74,2.74,0,0,1,2.17-.83q11,3.06,21.89,6.38c4.28,1.3,7.14,4.28,9.24,8.2a148.56,148.56,0,0,1,10.9,26.71c1.16,3.76,2.28,7.52,3.5,11.25a1.56,1.56,0,0,1-.77,2.23q-35.5,21.21-71,42.44a2.65,2.65,0,0,1-2.25.08Q123.35,83.78,87,61.56c-.11-.05-.18-.16-.39-.39C90.78,49.32,94.36,37.3,100.18,26.16ZM237.65,79q-14.44,10.05-28.94,20-23.27,16.1-46.52,32.22a2.24,2.24,0,0,1-3,0q-38.39-26.15-76.84-52.19c-1.29-.87-1.66-1.6-1-3.08,1-2.26,1.64-4.61,2.55-7.23,4.47,2.75,8.71,5.33,12.94,7.92q31.2,19.09,62.39,38.2a2.57,2.57,0,0,0,3.12,0Q198,93.44,233.68,72.05c.9-.54,1.8-1.06,2.89-1.7.77,2.45,1.58,4.74,2.17,7.1C238.85,77.86,238.15,78.67,237.65,79Z"/><path class="cls-1" d="M237.65,79q-14.44,10.05-28.94,20-23.27,16.1-46.52,32.22a2.24,2.24,0,0,1-3,0q-38.39-26.15-76.84-52.19c-1.29-.87-1.66-1.6-1-3.08,1-2.26,1.64-4.61,2.55-7.23,4.47,2.75,8.71,5.33,12.94,7.92q31.2,19.09,62.39,38.2a2.57,2.57,0,0,0,3.12,0Q198,93.44,233.68,72.05c.9-.54,1.8-1.06,2.89-1.7.77,2.45,1.58,4.74,2.17,7.1C238.85,77.86,238.15,78.67,237.65,79Z"/><path class="cls-1" d="M233.07,63.4q-35.5,21.21-71,42.44a2.65,2.65,0,0,1-2.25.08Q123.35,83.78,87,61.56c-.11-.05-.18-.16-.39-.39,4.21-11.85,7.79-23.87,13.61-35,5.52-10.55,5.69-11.52,18.92-15.28a114.68,114.68,0,0,1,12.81-2.54,3.44,3.44,0,0,1,2.48,1,66.81,66.81,0,0,0,15.3,11.12c8,4.11,15.79,3.79,23.52-.69a61.87,61.87,0,0,0,12.93-10.3,2.74,2.74,0,0,1,2.17-.83q11,3.06,21.89,6.38c4.28,1.3,7.14,4.28,9.24,8.2a148.56,148.56,0,0,1,10.9,26.71c1.16,3.76,2.28,7.52,3.5,11.25A1.56,1.56,0,0,1,233.07,63.4Z"/></g></g></g></svg>